<svg width="64" height="64" viewBox="0 0 94 83" fill="none" xmlns="http://www.w3.org/2000/svg">
<path d="M93 41.5C93 63.7542 72.5257 82 47 82C21.4743 82 1 63.7542 1 41.5C1 19.2458 21.4743 1 47 1C72.5257 1 93 19.2458 93 41.5Z" fill="#FEB368" stroke="#101010" stroke-width="2"/>
<g clip-path="url(#clip0_407_480)">
<path d="M70.4269 16.3059H60.9393C59.6293 16.3059 58.5674 17.3201 58.5674 18.5711V27.632C58.5674 28.883 59.6293 29.8972 60.9393 29.8972H70.4269C71.7368 29.8972 72.7987 28.883 72.7987 27.632V18.5711C72.7987 17.3201 71.7368 16.3059 70.4269 16.3059Z" fill="#FFCD32" stroke="#101010" stroke-width="2" stroke-linecap="round" stroke-linejoin="round"/>
<path d="M32.4767 16.3059H22.9891C21.6791 16.3059 20.6172 17.3201 20.6172 18.5711V27.632C20.6172 28.883 21.6791 29.8972 22.9891 29.8972H32.4767C33.7866 29.8972 34.8486 28.883 34.8486 27.632V18.5711C34.8486 17.3201 33.7866 16.3059 32.4767 16.3059Z" fill="#289BE9" stroke="#101010" stroke-width="2" stroke-linecap="round" stroke-linejoin="round"/>
<path d="M70.4269 52.5493H60.9393C59.6293 52.5493 58.5674 53.5635 58.5674 54.8145V63.8754C58.5674 65.1264 59.6293 66.1406 60.9393 66.1406H70.4269C71.7368 66.1406 72.7988 65.1264 72.7988 63.8754V54.8145C72.7988 53.5635 71.7368 52.5493 70.4269 52.5493Z" fill="#8DB91C" stroke="#101010" stroke-width="2" stroke-linecap="round" stroke-linejoin="round"/>
<path d="M32.4767 52.5493H22.9891C21.6791 52.5493 20.6172 53.5635 20.6172 54.8145V63.8754C20.6172 65.1264 21.6791 66.1406 22.9891 66.1406H32.4767C33.7866 66.1406 34.8486 65.1264 34.8486 63.8754V54.8145C34.8486 53.5635 33.7866 52.5493 32.4767 52.5493Z" fill="#DD221C" stroke="#101010" stroke-width="2" stroke-linecap="round" stroke-linejoin="round"/>
<path d="M27.7334 52.5493V29.8972" stroke="#101010" stroke-width="2" stroke-linecap="round" stroke-linejoin="round"/>
<path d="M65.5234 52.532V29.8799" stroke="#101010" stroke-width="2" stroke-linecap="round" stroke-linejoin="round"/>
<path d="M58.5076 54.7799L34.9082 29.8799" stroke="#101010" stroke-width="2" stroke-linecap="round" stroke-linejoin="round"/>
</g>
<defs>
<clipPath id="clip0_407_480">
<rect width="75.9006" height="72.4867" fill="white" transform="translate(8.75781 4.97998)"/>
</clipPath>
</defs>
</svg>
